<svg width="122" height="136" viewBox="0 0 122 136" fill="none" xmlns="http://www.w3.org/2000/svg">
<g clip-path="url(#clip0_1911_774)">
<path d="M61 119C94.6894 119 122 92.3609 122 59.5C122 26.6391 94.6894 0 61 0C27.3106 0 0 26.6391 0 59.5C0 92.3609 27.3106 119 61 119Z" fill="#242424"/>
<path d="M60.9999 117.513C28.2048 117.513 1.5249 91.4887 1.5249 59.5001C1.5249 27.5114 28.2048 1.48755 60.9999 1.48755C93.795 1.48755 120.475 27.5114 120.475 59.5001C120.475 91.4887 93.795 117.513 60.9999 117.513Z" fill="#0F161A"/>
<g opacity="0.2">
<path opacity="0.2" d="M18.9642 18.4971C8.19582 29.0035 1.5249 43.5057 1.5249 59.5C1.5249 75.4944 8.19582 89.9965 18.9642 100.503L60.9999 59.5L18.9642 18.4971Z" fill="#588199"/>
<path opacity="0.2" d="M120.475 59.5C120.475 43.5066 113.805 29.0035 103.036 18.4971L61 59.5L103.037 100.503C113.805 89.9965 120.475 75.4934 120.475 59.5Z" fill="#588199"/>
</g>
<path d="M61 81.8125C48.3863 81.8125 38.125 71.8035 38.125 59.5C38.125 47.1965 48.3863 37.1875 61 37.1875C73.6137 37.1875 83.875 47.1965 83.875 59.5C83.875 71.8035 73.6137 81.8125 61 81.8125Z" fill="#FFC643"/>
<path d="M60.9998 78.8376C50.0675 78.8376 41.1748 70.1627 41.1748 59.5001C41.1748 48.8375 50.0675 40.1626 60.9998 40.1626C71.9331 40.1626 80.8248 48.8375 80.8248 59.5001C80.8248 70.1627 71.9331 78.8376 60.9998 78.8376Z" fill="#FFB813"/>
<path d="M61.0001 60.9874C61.8423 60.9874 62.5251 60.3215 62.5251 59.4999C62.5251 58.6784 61.8423 58.0125 61.0001 58.0125C60.1579 58.0125 59.4751 58.6784 59.4751 59.4999C59.4751 60.3215 60.1579 60.9874 61.0001 60.9874Z" fill="#242424"/>
</g>
<path d="M21 104.5L7.09633 123.357L23.2407 122.622L30.6349 133.498L41 115.5C32 113 27.6647 108.878 21 104.5Z" fill="#DB5F44"/>
<path d="M99.5 105.5C93 111 85.5 114 77.0002 117L88.5453 134.202L96.506 123.734L112.589 125.324L99.5 105.5Z" fill="#DB5F44"/>
<defs>
<clipPath id="clip0_1911_774">
<rect width="122" height="119" fill="white"/>
</clipPath>
</defs>
</svg>
