<svg width="120" height="133" viewBox="0 0 120 133" fill="none" xmlns="http://www.w3.org/2000/svg">
<g clip-path="url(#clip0_910_2631)">
<path d="M60 116.684C93.1371 116.684 120 90.5636 120 58.3421C120 26.1207 93.1371 0 60 0C26.8629 0 0 26.1207 0 58.3421C0 90.5636 26.8629 116.684 60 116.684Z" fill="#242424"/>
<path d="M60 115.226C27.7425 115.226 1.5 89.7082 1.5 58.3421C1.5 26.9759 27.7425 1.4585 60 1.4585C92.2575 1.4585 118.5 26.9759 118.5 58.3421C118.5 89.7082 92.2575 115.226 60 115.226Z" fill="#0F161A"/>
<g opacity="0.2">
<path opacity="0.2" d="M18.6534 18.1372C8.06156 28.4391 1.5 42.6591 1.5 58.3422C1.5 74.0253 8.06156 88.2453 18.6534 98.5472L60 58.3422L18.6534 18.1372Z" fill="#588199"/>
<path opacity="0.2" d="M118.5 58.3422C118.5 42.66 111.939 28.4391 101.347 18.1372L60 58.3422L101.348 98.5472C111.939 88.2453 118.5 74.0244 118.5 58.3422Z" fill="#588199"/>
</g>
<path d="M60 80.2205C47.5931 80.2205 37.5 70.4062 37.5 58.3422C37.5 46.2781 47.5931 36.4639 60 36.4639C72.4069 36.4639 82.5 46.2781 82.5 58.3422C82.5 70.4062 72.4069 80.2205 60 80.2205Z" fill="#FFA555"/>
<path d="M60 77.3032C49.2469 77.3032 40.5 68.7971 40.5 58.342C40.5 47.887 49.2469 39.3809 60 39.3809C70.7541 39.3809 79.5 47.887 79.5 58.342C79.5 68.7971 70.7541 77.3032 60 77.3032Z" fill="#FB7900"/>
<path d="M60 59.8006C60.8284 59.8006 61.5 59.1476 61.5 58.3421C61.5 57.5366 60.8284 56.8835 60 56.8835C59.1716 56.8835 58.5 57.5366 58.5 58.3421C58.5 59.1476 59.1716 59.8006 60 59.8006Z" fill="#242424"/>
</g>
<path d="M19.5103 101.113L5.99673 118.992L21.8764 118.271L29.1494 128.935L42.2953 113.252C33.2659 111.539 24.8538 106.621 19.5103 101.113Z" fill="#DB5F44"/>
<path d="M97.1851 104.288C90.4918 108.35 83.1148 111.781 74.7541 115.213L86.1717 131.656L94.002 121.392L109.821 122.951L97.1851 104.288Z" fill="#DB5F44"/>
<defs>
<clipPath id="clip0_910_2631">
<rect width="120" height="116.684" fill="white"/>
</clipPath>
</defs>
</svg>
